grf
version=1
nRows=12
nColumns=37
inDegrees=no
endheader
time	ground_force_1_vx	ground_force_1_vy	ground_force_1_vz	ground_force_1_px	ground_force_1_py	ground_force_1_pz	ground_moment_1_mx	ground_moment_1_my	ground_moment_1_mz	ground_force_2_vx	ground_force_2_vy	ground_force_2_vz	ground_force_2_px	ground_force_2_py	ground_force_2_pz	ground_moment_2_mx	ground_moment_2_my	ground_moment_2_mz	ground_force_3_vx	ground_force_3_vy	ground_force_3_vz	ground_force_3_px	ground_force_3_py	ground_force_3_pz	ground_moment_3_mx	ground_moment_3_my	ground_moment_3_mz	ground_force_4_vx	ground_force_4_vy	ground_force_4_vz	ground_force_4_px	ground_force_4_py	ground_force_4_pz	ground_moment_4_mx	ground_moment_4_my	ground_moment_4_mz
      1.56000000	      0.00000000	     -0.00000000	      0.00000000	      0.00000000	      0.00000000	      0.00000000	      0.00000000	      0.00000000	      0.00000000	      8.32059002	     41.12682343	   -251.16528320	   -370.20093257	  -1083.07943832	      0.00000000	      0.00000000	      0.00000000	    544.41706412	      5.82740905	    -40.70448354	   -261.81701660	   -387.77010543	   -625.83885134	      0.00000000	      0.00000000	     -0.00000000	  -2561.29523561	    -35.20871976	     16.04051516	     76.05551910	    607.58068277	   -561.52711977	      0.00000000	     -0.00000000	     -0.00000000	     40.08131133
      1.57000000	      0.00000000	     -0.00000000	      0.00000000	      0.00000000	      0.00000000	      0.00000000	      0.00000000	      0.00000000	      0.00000000	      7.02195024	     42.22215271	   -254.13970947	   -368.11855157	  -1086.48558261	      0.00000000	      0.00000000	      0.00000000	    559.25773438	      4.40997483	    -40.68935433	   -265.85232544	   -386.19491787	   -627.32244341	      0.00000000	      0.00000000	     -0.00000000	  -2766.44110415	    -35.31037763	     16.02807926	     75.65647888	    605.46570111	   -565.50807986	      0.00000000	      0.00000000	      0.00000000	    133.01696508
      1.58000000	      0.00000000	     -0.00000000	      0.00000000	      0.00000000	      0.00000000	      0.00000000	      0.00000000	      0.00000000	      0.00000000	      6.51236725	     43.77703094	   -254.49227905	   -367.97497171	  -1086.87205204	      0.00000000	      0.00000000	      0.00000000	    623.49346971	      3.32003528	    -40.23614531	   -268.29699707	   -385.45086036	   -627.09677585	      0.00000000	      0.00000000	     -0.00000000	  -2986.94945453	    -35.36117414	     15.98937630	     75.85485840	    602.27886427	   -558.76868015	      0.00000000	      0.00000000	     -0.00000000	    -91.79922462
      1.59000000	      0.00000000	     -0.00000000	      0.00000000	      0.00000000	      0.00000000	      0.00000000	      0.00000000	      0.00000000	      0.00000000	      5.12311745	     44.64176941	   -253.33114624	   -366.88395531	  -1088.24004238	      0.00000000	      0.00000000	      0.00000000	    511.18649485	      2.68617659	    -40.36244607	   -269.39608765	   -384.86062147	   -627.66475314	      0.00000000	      0.00000000	     -0.00000000	  -3347.14601070	    -35.20834210	     16.09162829	     76.05625916	    604.59911495	   -561.68753586	      0.00000000	      0.00000000	     -0.00000000	    -39.10885936
      1.60000000	      0.00000000	     -0.00000000	      0.00000000	      0.00000000	      0.00000000	      0.00000000	      0.00000000	      0.00000000	      0.00000000	      2.98221302	     44.34882736	   -249.54672241	   -367.06525295	  -1086.10296244	      0.00000000	      0.00000000	      0.00000000	    649.79452441	      0.39289894	    -40.65322116	   -275.28106689	   -384.91947277	   -629.31874904	      0.00000000	     -0.00000000	     -0.00000000	  -3685.31945807	    -35.33609631	     16.09155773	     75.50546265	    605.07735758	   -564.38619077	      0.00000000	      0.00000000	      0.00000000	    125.90204028
      1.61000000	      0.00000000	     -0.00000000	      0.00000000	      0.00000000	      0.00000000	      0.00000000	      0.00000000	      0.00000000	      0.00000000	      2.16706562	     43.30499649	   -246.57109070	   -369.23704424	  -1086.90897962	      0.00000000	      0.00000000	      0.00000000	    764.76609331	     -1.03924950	    -40.51448431	   -279.61984253	   -385.93151515	   -629.65665044	      0.00000000	      0.00000000	     -0.00000000	  -4153.29492020	    -35.23348860	     15.93785403	     75.85386658	    601.63648885	   -562.11677939	      0.00000000	      0.00000000	      0.00000000	     84.53732636
      1.62000000	      0.00000000	     -0.00000000	      0.00000000	      0.00000000	      0.00000000	      0.00000000	      0.00000000	      0.00000000	      0.00000000	      3.17414570	     42.96197510	   -248.64311218	   -371.55778197	  -1086.82546039	      0.00000000	      0.00000000	      0.00000000	   1031.41883449	     -3.64927959	    -40.86784331	   -278.47601318	   -385.31277333	   -628.73497830	      0.00000000	      0.00000000	     -0.00000000	  -4576.21555457	    -35.23326732	     16.22004626	     74.54841614	    609.95530241	   -566.56805539	      0.00000000	      0.00000000	      0.00000000	    -48.41703596
      1.63000000	      0.00000000	     -0.00000000	      0.00000000	      0.00000000	      0.00000000	      0.00000000	      0.00000000	      0.00000000	      0.00000000	      4.65074730	     40.99998474	   -250.75775146	   -375.49951210	  -1084.59329279	      0.00000000	      0.00000000	      0.00000000	   1208.52380557	     -6.99485191	    -41.86447845	   -273.28680420	   -383.29745790	   -628.69367368	      0.00000000	     -0.00000000	     -0.00000000	  -4947.85600464	    -35.21943906	     16.01459811	     75.20296478	    607.10132461	   -562.63788845	      0.00000000	      0.00000000	      0.00000000	    -59.28962897
      1.64000000	      0.00000000	     -0.00000000	      0.00000000	      0.00000000	      0.00000000	      0.00000000	      0.00000000	      0.00000000	      0.00000000	      5.88998413	     40.04471970	   -251.26466370	   -378.57552915	  -1082.78036181	      0.00000000	      0.00000000	      0.00000000	   1490.59860266	    -10.55658714	    -42.78419402	   -272.14089966	   -384.12271308	   -628.97096090	      0.00000000	      0.00000000	     -0.00000000	  -5431.66858561	    -35.40032818	     16.11843228	     75.21192169	    607.17893278	   -564.84285466	      0.00000000	      0.00000000	     -0.00000000	    -35.88044872
      1.65000000	      0.00000000	     -0.00000000	      0.00000000	      0.00000000	      0.00000000	      0.00000000	      0.00000000	      0.00000000	      0.00000000	      4.97315168	     38.98889542	   -252.76745605	   -380.94341593	  -1081.95011617	      0.00000000	      0.00000000	      0.00000000	   1683.38803443	    -13.35896390	    -42.89943197	   -273.27819824	   -384.92189037	   -630.69908021	      0.00000000	      0.00000000	     -0.00000000	  -5906.79973607	    -35.20751048	     16.25642894	     76.56233215	    601.64888055	   -559.59012588	      0.00000000	      0.00000000	      0.00000000	     20.55038324
      1.66000000	      0.00000000	     -0.00000000	      0.00000000	      0.00000000	      0.00000000	      0.00000000	      0.00000000	      0.00000000	      0.00000000	      4.85343885	     37.19241333	   -251.66250610	   -384.63387020	  -1081.22072626	      0.00000000	      0.00000000	      0.00000000	   2046.22717141	    -12.62187563	    -42.09078488	   -270.39620972	   -384.23388709	   -630.53629558	      0.00000000	      0.00000000	     -0.00000000	  -6384.00203301	    -35.22154474	     16.36020778	     75.04810333	    607.04160569	   -565.29696293	      0.00000000	      0.00000000	      0.00000000	      3.90108078
      1.67000000	      0.00000000	     -0.00000000	      0.00000000	      0.00000000	      0.00000000	      0.00000000	      0.00000000	      0.00000000	      0.00000000	      6.49812794	     36.20117187	   -250.03758240	   -387.18601836	  -1081.09179394	      0.00000000	      0.00000000	      0.00000000	   2327.21734207	    -12.01492097	    -41.18266954	   -262.56201172	   -384.82774439	   -631.00363198	      0.00000000	      0.00000000	     -0.00000000	  -6909.82339680	    -35.50437026	     15.84535814	     74.99088287	    605.68609916	   -564.86997966	      0.00000000	      0.00000000	      0.00000000	    208.70411389
